<?xml version="1.0" encoding="UTF-8" standalone="no"?>
<!-- Generator: Adobe Illustrator 16.0.0, SVG Export Plug-In . SVG Version: 6.00 Build 0)  -->

<svg
   xmlns:dc="http://purl.org/dc/elements/1.1/"
   xmlns:cc="http://creativecommons.org/ns#"
   xmlns:rdf="http://www.w3.org/1999/02/22-rdf-syntax-ns#"
   xmlns:svg="http://www.w3.org/2000/svg"
   xmlns="http://www.w3.org/2000/svg"
   xmlns:sodipodi="http://sodipodi.sourceforge.net/DTD/sodipodi-0.dtd"
   xmlns:inkscape="http://www.inkscape.org/namespaces/inkscape"
   version="1.1"
   id="svg2"
   sodipodi:docname="PCB_Select (Finger).svg"
   inkscape:version="0.92.1 r15371"
   x="0px"
   y="0px"
   width="26px"
   height="26px"
   viewBox="0 0 26 26"
   enable-background="new 0 0 26 26"
   xml:space="preserve"><metadata
     id="metadata55"><rdf:RDF><cc:Work
         rdf:about=""><dc:format>image/svg+xml</dc:format><dc:type
           rdf:resource="http://purl.org/dc/dcmitype/StillImage" /></cc:Work></rdf:RDF></metadata><defs
     id="defs53" /><filter
     width="1.24"
     height="1.24"
     id="filter3952"
     inkscape:collect="always"
     y="-0.12"
     x="-0.12"><feGaussianBlur
       id="feGaussianBlur3954"
       inkscape:collect="always"
       stdDeviation="0.35" /></filter><filter
     id="filter3899"
     inkscape:collect="always"><feGaussianBlur
       id="feGaussianBlur3901"
       inkscape:collect="always"
       stdDeviation="0.375" /></filter><sodipodi:namedview
     inkscape:zoom="17.315805"
     showgrid="true"
     guidetolerance="10"
     gridtolerance="10"
     objecttolerance="10"
     bordercolor="#666666"
     pagecolor="#ffffff"
     borderopacity="1"
     id="namedview98"
     inkscape:snap-grids="true"
     inkscape:snap-to-guides="false"
     inkscape:current-layer="svg2"
     inkscape:window-maximized="1"
     inkscape:window-y="-9"
     inkscape:window-x="86"
     inkscape:window-height="1571"
     inkscape:pageshadow="2"
     inkscape:window-width="2465"
     inkscape:pageopacity="0"
     inkscape:cy="-0.035329009"
     inkscape:cx="17.59777"
     inkscape:lockguides="false"><inkscape:grid
       type="xygrid"
       id="grid3048"
       snapvisiblegridlinesonly="true"
       enabled="true"
       visible="true"
       empspacing="1" /></sodipodi:namedview><linearGradient
     id="rect3761_1_"
     gradientUnits="userSpaceOnUse"
     x1="18.6514"
     y1="589.7197"
     x2="-0.3484"
     y2="609.7194"
     gradientTransform="matrix(1 0 0 1 0.2432 -585.7988)"><stop
       offset="0"
       style="stop-color:#FFFFFF"
       id="stop11" /><stop
       offset="1"
       style="stop-color:#E1E1E1"
       id="stop13" /></linearGradient><g
     id="g4612"
     transform="matrix(1.1615,0,0,1.1615,-0.54971816,-0.80480413)"><g
       style="opacity:0.9;filter:url(#filter3899)"
       transform="matrix(0.75,0,0,0.75,3.2446218,3.2762846)"
       enable-background="new    "
       sodipodi:nodetypes="cccccc"
       inkscape:connector-curvature="0"
       id="path3889" /><rect
       y="3.5879188"
       x="3.5498524"
       height="19.083574"
       width="18.900002"
       id="rect4558"
       style="fill:#71c837;fill-opacity:1;stroke:#000000;stroke-width:0.52499998;stroke-miterlimit:4;stroke-dasharray:none;stroke-opacity:1" /><g
       transform="matrix(0.75,0,0,0.75,2.3123181,3.2762846)"
       id="g4599"><path
         style="fill:none;stroke:#454545;stroke-width:0.80000001;stroke-linecap:round;stroke-linejoin:round"
         id="path307-5"
         inkscape:connector-curvature="0"
         sodipodi:nodetypes="ccc"
         d="m 6.743,23.701 3,-3 v -5" /><path
         style="fill:none;stroke:#454545;stroke-width:0.80000001;stroke-linecap:round;stroke-linejoin:round"
         id="path309-3"
         inkscape:connector-curvature="0"
         sodipodi:nodetypes="ccc"
         d="m 12.743,15.701 v 6.5 l -1.5,1.5" /><path
         style="fill:none;stroke:#454545;stroke-width:0.80000001;stroke-linecap:round;stroke-linejoin:round"
         id="path311-3"
         inkscape:connector-curvature="0"
         sodipodi:nodetypes="cc"
         d="m 15.743,15.701 v 8" /><path
         style="fill:none;stroke:#454545;stroke-width:0.80000001;stroke-linecap:round;stroke-linejoin:round"
         id="path313-8"
         inkscape:connector-curvature="0"
         sodipodi:nodetypes="ccc"
         d="m 18.743,15.701 v 6.5 l 1,1" /><path
         style="fill:none;stroke:#454545;stroke-width:0.80000001;stroke-linecap:round;stroke-linejoin:round"
         id="path331-1"
         inkscape:connector-curvature="0"
         sodipodi:nodetypes="cccc"
         d="m 9.743,7.201 v -2.5 l -2,-2 h -3" /><path
         style="fill:none;stroke:#454545;stroke-width:0.80000001;stroke-linecap:round;stroke-linejoin:round"
         id="path333-9"
         inkscape:connector-curvature="0"
         sodipodi:nodetypes="cc"
         d="m 12.743,7.201 v -4.5" /><path
         style="fill:none;stroke:#454545;stroke-width:0.80000001;stroke-linecap:round;stroke-linejoin:round"
         id="path335-0"
         inkscape:connector-curvature="0"
         sodipodi:nodetypes="ccc"
         d="m 15.743,7.201 v -3 l 1.5,-1.5" /><path
         style="fill:none;stroke:#454545;stroke-width:0.80000001;stroke-linecap:round;stroke-linejoin:round"
         id="path337-9"
         inkscape:connector-curvature="0"
         sodipodi:nodetypes="ccc"
         d="m 18.743,7.201 v -2.5 l 2,-2" /><path
         style="fill:#454545;stroke:#454545;stroke-width:0.80000001;stroke-linecap:round;stroke-linejoin:round"
         id="path339-8"
         inkscape:connector-curvature="0"
         sodipodi:nodetypes="cccccc"
         d="m 4.743,21.701 2,-2 v -13.5 l -1,-1 h -1 z" /><path
         style="fill:#454545;stroke:#454545;stroke-width:0.80000001;stroke-linecap:round;stroke-linejoin:round"
         id="path341-8"
         inkscape:connector-curvature="0"
         sodipodi:nodetypes="ccccc"
         d="m 23.743,3.201 -2,2 v 14.5 l 2,-1 z" /><path
         style="fill:none;stroke:#454545;stroke-width:1.60000002;stroke-linecap:round;stroke-linejoin:round"
         id="path315-3"
         inkscape:connector-curvature="0"
         sodipodi:nodetypes="cc"
         d="M 9.743,15.507 V 14.201" /><path
         style="fill:none;stroke:#454545;stroke-width:1.60000002;stroke-linecap:round;stroke-linejoin:round"
         id="path317-7"
         inkscape:connector-curvature="0"
         sodipodi:nodetypes="cc"
         d="M 12.743,15.507 V 14.201" /><path
         style="fill:none;stroke:#454545;stroke-width:1.60000002;stroke-linecap:round;stroke-linejoin:round"
         id="path319-9"
         inkscape:connector-curvature="0"
         sodipodi:nodetypes="cc"
         d="M 15.743,15.507 V 14.201" /><path
         style="fill:none;stroke:#454545;stroke-width:1.60000002;stroke-linecap:round;stroke-linejoin:round"
         id="path321-3"
         inkscape:connector-curvature="0"
         sodipodi:nodetypes="cc"
         d="M 18.743,15.507 V 14.201" /><path
         style="fill:none;stroke:#454545;stroke-width:1.60000002;stroke-linecap:round;stroke-linejoin:round"
         id="path323-7"
         inkscape:connector-curvature="0"
         sodipodi:nodetypes="cc"
         d="M 18.743,9.201 V 7.895" /><path
         style="fill:none;stroke:#454545;stroke-width:1.60000002;stroke-linecap:round;stroke-linejoin:round"
         id="path325-8"
         inkscape:connector-curvature="0"
         sodipodi:nodetypes="cc"
         d="M 15.743,9.201 V 7.895" /><path
         style="fill:none;stroke:#454545;stroke-width:1.60000002;stroke-linecap:round;stroke-linejoin:round"
         id="path327-7"
         inkscape:connector-curvature="0"
         sodipodi:nodetypes="cc"
         d="M 12.743,9.201 V 7.895" /><path
         style="fill:none;stroke:#454545;stroke-width:1.60000002;stroke-linecap:round;stroke-linejoin:round"
         id="path329-4"
         inkscape:connector-curvature="0"
         sodipodi:nodetypes="cc"
         d="M 9.743,9.201 V 7.895" /></g></g><g
     id="path3783"
     inkscape:connector-curvature="0"
     sodipodi:nodetypes="cccc"
     enable-background="new    "
     transform="translate(-38.289974,17.692609)"
     style="opacity:0.5;filter:url(#filter3952)" /><radialGradient
     id="path3765_1_"
     cx="28.5"
     cy="281.583"
     r="3.5006"
     gradientTransform="matrix(0.8571,0.8571,-1.4286,1.4286,364.91262,-386.94495)"
     gradientUnits="userSpaceOnUse"><stop
       offset="0"
       style="stop-color:#FFFFFF"
       id="stop46" /><stop
       offset="1"
       style="stop-color:#DCDCDC"
       id="stop48" /></radialGradient><g
     id="g4585"
     transform="matrix(0.01670502,0.01099738,-0.01099738,0.01670502,9.221462,-67.661898)"><g
       id="g4589"
       transform="matrix(-0.74612289,1.5829721,-1.5829721,-0.74612289,2367.2057,3924.6866)"><path
         style="fill:#b38a6d;fill-opacity:1"
         d="m -168.56693,253.30609 c -17.673,0 -32,14.327 -32,32 v -21.333 c 0,-17.673 -14.327,-32 -32,-32 -17.673,0 -32,14.327 -32,32 v -21.333 c 0,-17.673 -14.327,-32 -32,-32 -17.673,0 -32,14.327 -32,32 v -106.667 c 0,-17.673 -14.327,-32 -32,-32 -17.673,0 -32,14.327 -32,32 v 266.667 l -74.069,-37.035 c -7.405,-3.703 -15.571,-5.631 -23.851,-5.632 -16.613,0 -30.08,13.467 -30.08,30.08 v 0.128 c -0.017,8 3.154,15.677 8.811,21.333 l 137.941,137.941 c 28.983,28.954 68.281,45.207 109.248,45.184 v 0 c 70.692,0 128,-57.308 128,-128 v -181.333 c 0,-17.673 -14.326,-32 -32,-32 z"
         id="path4514"
         inkscape:connector-curvature="0" /><path
         d="m -264.56693,605.30609 c -43.823,0.124 -85.874,-17.291 -116.779,-48.363 l -137.941,-137.941 c -15.941,-15.951 -15.934,-41.804 0.017,-57.745 7.637,-7.632 17.986,-11.929 28.783,-11.951 9.929,0.008 19.72,2.316 28.608,6.741 l 58.645,29.333 v -249.407 c 10e-4,-23.564 19.103,-42.667 42.667,-42.667 23.564,0 42.667,19.103 42.667,42.667 v 69.739 c 20.403,-11.789 46.5,-4.807 58.289,15.596 1.33,2.302 2.442,4.722 3.321,7.231 19.581,-13.11 46.081,-7.864 59.191,11.716 2.002,2.99 3.618,6.222 4.809,9.617 19.586,-13.102 46.085,-7.845 59.186,11.741 4.691,7.012 7.197,15.257 7.203,23.694 v 181.333 c -0.093,76.544 -62.121,138.572 -138.666,138.666 z m -225.92,-234.667 c -10.769,0.03 -19.474,8.785 -19.443,19.554 0.015,5.149 2.065,10.083 5.705,13.726 l 137.941,137.941 c 26.923,27.056 63.549,42.219 101.717,42.112 64.767,-0.082 117.251,-52.566 117.333,-117.333 v -181.333 c 0,-11.782 -9.551,-21.333 -21.333,-21.333 -11.782,0 -21.333,9.551 -21.333,21.333 v 53.333 c 0,5.891 -4.776,10.667 -10.667,10.667 -5.891,0 -10.667,-4.776 -10.667,-10.667 v -74.667 c 0,-11.782 -9.551,-21.333 -21.333,-21.333 -11.782,0 -21.333,9.551 -21.333,21.333 v 74.667 c 0,5.891 -4.776,10.667 -10.667,10.667 -5.891,0 -10.667,-4.776 -10.667,-10.667 v -96 c 0,-11.782 -9.551,-21.333 -21.333,-21.333 -11.782,0 -21.333,9.551 -21.333,21.333 v 96 c 0,5.891 -4.776,10.667 -10.667,10.667 -5.891,0 -10.667,-4.776 -10.667,-10.667 v -202.666 c 0,-11.782 -9.551,-21.333 -21.333,-21.333 -11.782,0 -21.333,9.551 -21.333,21.333 v 266.667 c 0,5.891 -4.776,10.667 -10.667,10.666 -1.659,0 -3.295,-0.387 -4.778,-1.13 l -74.155,-37.035 c -5.898,-2.941 -12.396,-4.481 -18.987,-4.502 z"
         id="path4524"
         inkscape:connector-curvature="0" /></g></g><g
     id="g4526"
     transform="translate(-584.56893,-286.69391)" /><g
     id="g4528"
     transform="translate(-584.56893,-286.69391)" /><g
     id="g4530"
     transform="translate(-584.56893,-286.69391)" /><g
     id="g4532"
     transform="translate(-584.56893,-286.69391)" /><g
     id="g4534"
     transform="translate(-584.56893,-286.69391)" /><g
     id="g4536"
     transform="translate(-584.56893,-286.69391)" /><g
     id="g4538"
     transform="translate(-584.56893,-286.69391)" /><g
     id="g4540"
     transform="translate(-584.56893,-286.69391)" /><g
     id="g4542"
     transform="translate(-584.56893,-286.69391)" /><g
     id="g4544"
     transform="translate(-584.56893,-286.69391)" /><g
     id="g4546"
     transform="translate(-584.56893,-286.69391)" /><g
     id="g4548"
     transform="translate(-584.56893,-286.69391)" /><g
     id="g4550"
     transform="translate(-584.56893,-286.69391)" /><g
     id="g4552"
     transform="translate(-584.56893,-286.69391)" /><g
     id="g4554"
     transform="translate(-584.56893,-286.69391)" /></svg>