<?xml version="1.0" encoding="UTF-8" standalone="no"?>
<!-- Generator: Adobe Illustrator 16.0.0, SVG Export Plug-In . SVG Version: 6.00 Build 0)  -->

<svg
   xmlns:dc="http://purl.org/dc/elements/1.1/"
   xmlns:cc="http://creativecommons.org/ns#"
   xmlns:rdf="http://www.w3.org/1999/02/22-rdf-syntax-ns#"
   xmlns:svg="http://www.w3.org/2000/svg"
   xmlns="http://www.w3.org/2000/svg"
   xmlns:xlink="http://www.w3.org/1999/xlink"
   xmlns:sodipodi="http://sodipodi.sourceforge.net/DTD/sodipodi-0.dtd"
   xmlns:inkscape="http://www.inkscape.org/namespaces/inkscape"
   version="1.1"
   id="Layer_5"
   inkscape:version="0.92.1 r15371"
   sodipodi:docname="Import Outline (blue arrow).svg"
   x="0px"
   y="0px"
   width="512px"
   height="512px"
   viewBox="0 0 512 512"
   enable-background="new 0 0 512 512"
   xml:space="preserve"><metadata
     id="metadata11"><rdf:RDF><cc:Work
         rdf:about=""><dc:format>image/svg+xml</dc:format><dc:type
           rdf:resource="http://purl.org/dc/dcmitype/StillImage" /><dc:title></dc:title></cc:Work></rdf:RDF></metadata><defs
     id="defs9"><linearGradient
       inkscape:collect="always"
       id="linearGradient4510"><stop
         style="stop-color:#5085c7;stop-opacity:1"
         offset="0"
         id="stop4506" /><stop
         style="stop-color:#3466a4;stop-opacity:0;"
         offset="1"
         id="stop4508" /></linearGradient><linearGradient
       inkscape:collect="always"
       xlink:href="#linearGradient4510"
       id="linearGradient4512"
       x1="1057.1848"
       y1="1157.3226"
       x2="1335.1364"
       y2="1036.6462"
       gradientUnits="userSpaceOnUse" /></defs><sodipodi:namedview
     inkscape:cy="244.12307"
     inkscape:cx="207.80414"
     inkscape:zoom="1.3360975"
     showgrid="false"
     guidetolerance="10"
     gridtolerance="10"
     objecttolerance="10"
     borderopacity="1"
     bordercolor="#666666"
     pagecolor="#ffffff"
     id="namedview37"
     inkscape:current-layer="g4493"
     inkscape:window-maximized="0"
     inkscape:window-y="142"
     inkscape:window-x="3088"
     inkscape:window-height="1252"
     inkscape:window-width="1462"
     inkscape:pageshadow="2"
     inkscape:pageopacity="0"
     showguides="false" /><g
     id="g34"><path
       d="M477.6,207.2H428.4v-48c0-15.878-9.691-24.8-21.601-24.8H32.4c-11.909,0-21.6,8.922-21.6,24.8v315.6   c0,15.879,9.691,24.8,21.6,24.8h72c11.909,0,21.6-8.921,21.6-24.8v-19.2c0-15.878,9.691-28.8,21.6-28.8s21.6,12.922,21.6,28.8v19.2   c0,15.879,9.691,24.8,21.6,24.8h216c11.909,0,21.601-8.921,21.601-24.8v-48H477.6c11.909,0,21.601-12.922,21.601-28.8V236   C499.2,220.122,489.509,207.2,477.6,207.2L477.6,207.2z"
       id="path3" /><path
       fill="#D9D9D9"
       d="M484.8,398c0,5.29-3.226,13.6-7.2,13.6H414v63.2c0,5.29-3.226,9.601-7.2,9.601h-216   c-3.974,0-7.2-4.311-7.2-9.601v-19.2c0-26.467-16.15-44-36-44c-19.851,0-36,17.533-36,44v19.2c0,5.29-3.226,9.601-7.2,9.601h-72   c-3.974,0-7.2-4.311-7.2-9.601V159.2c0-5.29,3.226-9.6,7.2-9.6h374.4c3.975,0,7.2,4.31,7.2,9.6v63.2h63.6   c3.975,0,7.2,8.311,7.2,13.6V398z"
       id="path5" /><g
       transform="matrix(0.36626984,1.6636089,-1.2806502,0.42496176,1173.0553,-2331.1883)"
       id="g4493"><path
         sodipodi:nodetypes="ccscccsccscscccccscccccsc"
         style="opacity:1;fill:#8db1df;fill-opacity:1;stroke:#042a2a;stroke-width:12.19556808;stroke-miterlimit:4;stroke-dasharray:none;stroke-opacity:1"
         inkscape:connector-curvature="0"
         d="m 1145.5648,1074.1543 c 18.5937,-18.383 48.2169,-28.9064 88.8688,-31.5737 v -37.4326 c 0,-4.0003 1.9294,-6.80966 5.7868,-8.43006 4.0547,-1.61639 7.5171,-0.95178 10.3849,2.00121 l 75.9581,73.15065 c 1.8799,1.8121 2.8184,3.9543 2.8184,6.4303 0,2.4767 -0.9389,4.6185 -2.8184,6.429 l -75.9602,73.1502 c -1.7833,1.81 -4.0064,2.7148 -6.6772,2.7148 -1.1865,0 -2.4222,-0.2382 -3.7083,-0.7141 -3.8572,-1.6204 -5.7882,-4.4273 -5.7882,-8.4296 v -35.8618 c -15.9228,1.2386 -29.1503,3.7387 -39.6881,7.5008 -10.5331,3.7627 -18.9637,9.0247 -25.2946,15.7879 -14.738,15.7158 -19.9806,42.6214 -15.7274,80.7237 0.1953,2.4775 -0.9389,4.0963 -3.4125,4.858 -0.2967,0.097 -0.7414,0.142 -1.3349,0.142 -1.9778,0 -3.361,-0.8095 -4.154,-2.4285 l -2.9667,-5.7148 c -1.3832,-2.6676 -3.3858,-6.9784 -6.007,-12.9313 -2.6194,-5.9556 -4.9969,-11.9071 -7.1237,-17.8612 -2.1269,-5.9515 -4.0298,-12.5235 -5.7119,-19.7147 -1.6805,-7.194 -2.5219,-13.5508 -2.5219,-19.074 0,-32.0039 8.3606,-56.2428 25.078,-72.7222 z"
         id="path4312" /><path
         sodipodi:nodetypes="cccccccczcccc"
         inkscape:connector-curvature="0"
         id="path4314"
         d="m 1252.6459,1025.0625 c 18.4441,17.7617 37.1632,35.1962 55.3062,53.3235 -19.0906,18.0067 -37.542,36.7844 -56.7747,54.6184 -0.018,-12.2743 -0.087,-24.5491 0.032,-36.8231 -26.4463,1.6409 -53.9694,3.575 -77.8197,17.2303 -17.0095,9.5803 -28.4884,27.8106 -34.5388,47.088 -3.5743,-21.5969 -1.2897,-45.3408 10.607,-63.6609 11.0273,-16.9013 29.5358,-25.7267 47.629,-30.3404 14.7839,-4.3279 33.6971,-3.6433 45.1276,-7.7257 11.4305,-4.0824 10.4187,-14.9284 9.2176,-23.8416 -0.062,-3.7919 -0.2886,-7.6325 -0.4323,-11.451 0.5488,0.5275 1.0977,1.055 1.6465,1.5825 z"
         style="opacity:1;fill:url(#linearGradient4512);fill-opacity:1;stroke:none;stroke-width:34.75331116;stroke-miterlimit:4;stroke-dasharray:none;stroke-opacity:1" /></g></g></svg>